<svg fill="#000000" xmlns="http://www.w3.org/2000/svg"  viewBox="0 0 80 80" width="80px" height="80px"><path d="M 40 7 C 21.786447 7 7 21.786447 7 40 C 7 58.213553 21.786447 73 40 73 C 58.213553 73 73 58.213551 73 40 C 73 21.786449 58.213551 7 40 7 z M 40 9 C 57.132671 9 71 22.867329 71 40 C 71 57.132671 57.132673 71 40 71 C 36.825954 71 33.765296 70.521221 30.882812 69.636719 C 32.155933 67.546131 33.946932 64.30302 34.628906 61.679688 C 35.010193 60.215885 36.580078 54.246094 36.580078 54.246094 C 37.598846 56.191021 40.576725 57.837891 43.746094 57.837891 C 53.177223 57.837891 59.974609 49.164986 59.974609 38.386719 C 59.974609 28.05349 51.542591 20.324219 40.693359 20.324219 C 27.19557 20.324219 20.029297 29.383907 20.029297 39.248047 C 20.029297 43.835518 22.472221 49.544651 26.378906 51.363281 C 26.97068 51.638722 27.28791 51.521 27.423828 50.947266 C 27.528471 50.511852 28.054064 48.387886 28.291016 47.400391 C 28.366791 47.085262 28.331165 46.814228 28.076172 46.503906 C 26.783167 44.935463 25.748047 42.052284 25.748047 39.365234 C 25.748047 32.46719 30.970098 25.792969 39.867188 25.792969 C 47.549454 25.792969 52.929688 31.030165 52.929688 38.517578 C 52.929687 46.976849 48.655777 52.837891 43.097656 52.837891 C 40.028118 52.837891 37.729481 50.297638 38.466797 47.183594 C 39.350849 43.466949 41.058594 39.45808 41.058594 36.773438 C 41.058594 34.372654 39.770569 32.369141 37.101562 32.369141 C 33.963463 32.369141 31.445312 35.613579 31.445312 39.962891 C 31.445313 42.73053 32.380859 44.603516 32.380859 44.603516 C 32.380859 44.603516 29.280611 57.709164 28.712891 60.148438 C 28.105286 62.751628 28.315768 66.34944 28.576172 68.822266 C 17.106091 64.27722 9 53.096097 9 40 C 9 22.867327 22.867327 9 40 9 z M 40 12 C 39.447716 12 39 12.447715 39 13 C 39 13.552285 39.447716 14 40 14 C 40.552284 14 41 13.552285 41 13 C 41 12.447715 40.552284 12 40 12 z M 34.539062 12.537109 C 33.997383 12.644817 33.646198 13.17121 33.753906 13.712891 C 33.861614 14.254571 34.388008 14.607707 34.929688 14.5 C 35.471367 14.392292 35.822552 13.8659 35.714844 13.324219 C 35.607136 12.782538 35.080742 12.429402 34.539062 12.537109 z M 45.462891 12.537109 C 44.921219 12.429355 44.394867 12.780595 44.287109 13.322266 C 44.179356 13.863935 44.530594 14.390292 45.072266 14.498047 C 45.613937 14.605802 46.140289 14.254561 46.248047 13.712891 C 46.355801 13.17122 46.004562 12.644865 45.462891 12.537109 z M 29.675781 14.054688 C 29.545885 14.05372 29.412717 14.078022 29.285156 14.130859 C 28.774912 14.34221 28.532791 14.927255 28.744141 15.4375 C 28.95549 15.947745 29.540537 16.189865 30.050781 15.978516 C 30.561026 15.767166 30.803146 15.182119 30.591797 14.671875 C 30.433283 14.289191 30.065469 14.057589 29.675781 14.054688 z M 50.324219 14.054688 C 49.934529 14.057589 49.566715 14.289192 49.408203 14.671875 C 49.196854 15.182119 49.438976 15.767165 49.949219 15.978516 C 50.459465 16.189865 51.04451 15.947743 51.255859 15.4375 C 51.467209 14.927256 51.225086 14.34221 50.714844 14.130859 C 50.587282 14.078022 50.454115 14.05372 50.324219 14.054688 z M 24.810547 16.566406 C 24.682958 16.590799 24.558161 16.640089 24.443359 16.716797 C 23.984152 17.02363 23.861136 17.644308 24.167969 18.103516 C 24.4748 18.562723 25.09548 18.687693 25.554688 18.380859 C 26.013895 18.074026 26.138863 17.453348 25.832031 16.994141 C 25.601906 16.649735 25.193314 16.493228 24.810547 16.566406 z M 55.1875 16.566406 C 54.804733 16.493228 54.398092 16.649735 54.167969 16.994141 C 53.861137 17.453348 53.984154 18.074028 54.443359 18.380859 C 54.902569 18.687693 55.523243 18.564676 55.830078 18.105469 C 56.13691 17.646261 56.013897 17.02363 55.554688 16.716797 C 55.439886 16.640089 55.315089 16.590799 55.1875 16.566406 z M 20.908203 19.908203 C 20.652281 19.908208 20.39643 20.005907 20.201172 20.201172 C 19.810654 20.591703 19.81064 21.224716 20.201172 21.615234 C 20.591701 22.005751 21.224716 22.005764 21.615234 21.615234 C 22.005751 21.224703 22.005764 20.59169 21.615234 20.201172 C 21.419969 20.005914 21.164125 19.908199 20.908203 19.908203 z M 59.091797 19.908203 C 58.835874 19.908208 58.580025 20.005906 58.384766 20.201172 C 57.994247 20.591701 57.994232 21.224716 58.384766 21.615234 C 58.775295 22.005751 59.408314 22.005764 59.798828 21.615234 C 60.189346 21.224703 60.189358 20.591688 59.798828 20.201172 C 59.603563 20.005913 59.34772 19.908199 59.091797 19.908203 z M 62.261719 24.015625 C 62.13413 24.040018 62.009333 24.089307 61.894531 24.166016 C 61.435322 24.472847 61.312309 25.093527 61.619141 25.552734 C 61.925976 26.011942 62.546654 26.134956 63.005859 25.828125 C 63.465069 25.521292 63.588081 24.900614 63.28125 24.441406 C 63.051124 24.097001 62.644485 23.942446 62.261719 24.015625 z M 17.738281 24.017578 C 17.355514 23.9444 16.948873 24.098954 16.71875 24.443359 C 16.411917 24.902567 16.536886 25.523245 16.996094 25.830078 C 17.455301 26.136911 18.075979 26.013895 18.382812 25.554688 C 18.689644 25.09548 18.564676 24.474802 18.105469 24.167969 C 17.990667 24.09126 17.86587 24.041971 17.738281 24.017578 z M 64.953125 28.666016 C 64.823228 28.665048 64.690062 28.68935 64.5625 28.742188 C 64.052254 28.953537 63.810139 29.538584 64.021484 30.048828 C 64.232834 30.559073 64.817879 30.801193 65.328125 30.589844 C 65.838371 30.378492 66.08049 29.793447 65.869141 29.283203 C 65.710628 28.900521 65.342815 28.668917 64.953125 28.666016 z M 15.048828 28.667969 C 14.659139 28.670871 14.291325 28.902473 14.132812 29.285156 C 13.921462 29.795401 14.163585 30.380447 14.673828 30.591797 C 15.184073 30.803148 15.769118 30.561026 15.980469 30.050781 C 16.191818 29.540535 15.949697 28.955492 15.439453 28.744141 C 15.311892 28.691303 15.178724 28.667001 15.048828 28.667969 z M 13.716797 33.751953 C 13.175126 33.644199 12.646818 33.995438 12.539062 34.537109 C 12.431308 35.078781 12.784501 35.607086 13.326172 35.714844 C 13.867842 35.822598 14.394198 35.469406 14.501953 34.927734 C 14.609708 34.386063 14.258467 33.859711 13.716797 33.751953 z M 66.287109 33.751953 C 65.74543 33.859661 65.394241 34.386055 65.501953 34.927734 C 65.609657 35.469414 66.136055 35.820595 66.677734 35.712891 C 67.219414 35.605183 67.570602 35.078789 67.462891 34.537109 C 67.355186 33.99543 66.828789 33.644249 66.287109 33.751953 z M 13 39 C 12.447715 39 12 39.447716 12 40 C 12 40.552284 12.447715 41 13 41 C 13.552285 41 14 40.552284 14 40 C 14 39.447716 13.552285 39 13 39 z M 67 39 C 66.447716 39 66 39.447716 66 40 C 66 40.552284 66.447716 41 67 41 C 67.552284 41 68 40.552284 68 40 C 68 39.447716 67.552284 39 67 39 z M 13.324219 44.287109 C 12.782538 44.394817 12.431356 44.921211 12.539062 45.462891 C 12.646771 46.00457 13.173162 46.355755 13.714844 46.248047 C 14.256524 46.140343 14.607707 45.613945 14.5 45.072266 C 14.392292 44.530586 13.8659 44.179401 13.324219 44.287109 z M 66.28125 44.287109 C 65.899615 44.365973 65.582771 44.666012 65.501953 45.072266 C 65.394196 45.613934 65.745438 46.140293 66.287109 46.248047 C 66.828781 46.355801 67.355133 46.004562 67.462891 45.462891 C 67.570648 44.921223 67.219406 44.394863 66.677734 44.287109 C 66.542316 44.260171 66.408462 44.260821 66.28125 44.287109 z M 64.9375 49.330078 C 64.54781 49.33298 64.179997 49.564581 64.021484 49.947266 C 63.810135 50.457508 64.052254 51.042557 64.5625 51.253906 C 65.072739 51.46526 65.657784 51.223137 65.869141 50.712891 C 66.08049 50.202648 65.838371 49.617603 65.328125 49.40625 C 65.200563 49.353413 65.067397 49.329111 64.9375 49.330078 z M 15.0625 49.332031 C 14.932604 49.331064 14.801389 49.355366 14.673828 49.408203 C 14.163583 49.619553 13.919509 50.204598 14.130859 50.714844 C 14.342209 51.225086 14.927256 51.467209 15.4375 51.255859 C 15.947745 51.04451 16.191818 50.459465 15.980469 49.949219 C 15.821956 49.566537 15.452189 49.334933 15.0625 49.332031 z M 62.638672 54.015625 C 62.255904 53.942446 61.849267 54.097002 61.619141 54.441406 C 61.312309 54.900616 61.435322 55.521294 61.894531 55.828125 C 62.353737 56.13496 62.976372 56.01194 63.283203 55.552734 C 63.590035 55.093525 63.465065 54.472847 63.005859 54.166016 C 62.891057 54.089307 62.766261 54.040018 62.638672 54.015625 z M 17.363281 54.017578 C 17.235692 54.041971 17.110896 54.091261 16.996094 54.167969 C 16.536886 54.4748 16.41387 55.095482 16.720703 55.554688 C 17.027536 56.013897 17.648214 56.136913 18.107422 55.830078 C 18.566629 55.523247 18.689646 54.902569 18.382812 54.443359 C 18.152688 54.098955 17.746048 53.9444 17.363281 54.017578 z M 20.908203 58.091797 C 20.652281 58.091802 20.396431 58.189499 20.201172 58.384766 C 19.810656 58.775295 19.810642 59.40831 20.201172 59.798828 C 20.591703 60.189346 21.224716 60.189358 21.615234 59.798828 C 22.005751 59.408295 22.005764 58.775284 21.615234 58.384766 C 21.419969 58.189507 21.164126 58.091792 20.908203 58.091797 z M 59.091797 58.091797 C 58.835875 58.091801 58.580023 58.189501 58.384766 58.384766 C 57.994247 58.775295 57.994236 59.40831 58.384766 59.798828 C 58.775295 60.189343 59.40831 60.189362 59.798828 59.798828 C 60.189343 59.408299 60.189358 58.77528 59.798828 58.384766 C 59.603563 58.189507 59.347719 58.091793 59.091797 58.091797 z M 25.189453 61.464844 C 24.806686 61.391666 24.400047 61.548174 24.169922 61.892578 C 23.86309 62.351788 23.988058 62.972462 24.447266 63.279297 C 24.906473 63.586128 25.527153 63.463116 25.833984 63.003906 C 26.140818 62.544701 26.017801 61.924019 25.558594 61.617188 C 25.443792 61.54048 25.317042 61.489236 25.189453 61.464844 z M 54.8125 61.464844 C 54.684911 61.489237 54.560114 61.538526 54.445312 61.615234 C 53.986103 61.922066 53.86309 62.544697 54.169922 63.003906 C 54.476757 63.463112 55.097431 63.586132 55.556641 63.279297 C 56.015846 62.972465 56.140816 62.351788 55.833984 61.892578 C 55.603861 61.548174 55.195267 61.391665 54.8125 61.464844 z M 50.339844 63.943359 C 50.209947 63.942392 50.078733 63.966693 49.951172 64.019531 C 49.440929 64.230881 49.196854 64.815926 49.408203 65.326172 C 49.619553 65.83641 50.204598 66.078537 50.714844 65.867188 C 51.225086 65.655838 51.469162 65.070793 51.257812 64.560547 C 51.0993 64.177868 50.729533 63.946261 50.339844 63.943359 z M 45.072266 65.5 C 44.530586 65.607704 44.179401 66.134102 44.287109 66.675781 C 44.394817 67.217461 44.921207 67.570602 45.462891 67.462891 C 46.00457 67.355186 46.357708 66.828789 46.25 66.287109 C 46.142292 65.74543 45.613945 65.392288 45.072266 65.5 z M 40 66 C 39.447716 66 39 66.447716 39 67 C 39 67.552284 39.447716 68 40 68 C 40.552284 68 41 67.552284 41 67 C 41 66.447716 40.552284 66 40 66 z"/></svg>